<?xml version="1.0" encoding="UTF-8"?><svg id="Layer_1" xmlns="http://www.w3.org/2000/svg" viewBox="0 0 28 28"><defs><style>.cls-1{fill:#999;}.cls-2{fill:none;stroke:#999;}</style></defs><g id="Layer_2"><path class="cls-1" d="m14,28C6.27,28,0,21.73,0,14S6.27,0,14,0s14,6.27,14,14-6.27,14-14,14Zm0-26.84C6.91,1.16,1.16,6.91,1.16,14s5.75,12.84,12.84,12.84,12.84-5.75,12.84-12.84c0-7.09-5.75-12.83-12.84-12.84Z"/><g id="Subtraction_227"><path class="cls-1" d="m17.45,5.85c.84-.01,1.54.66,1.55,1.51,0,0,0,0,0,.01v13.26c0,.84-.69,1.52-1.53,1.52h-6.14c-.84,0-1.52-.68-1.53-1.52V7.37c0-.84.69-1.52,1.53-1.52h6.12m-5.91,5.6h1.85c.42,0,.76-.34.76-.76h0v-3.06c0-.42-.34-.76-.76-.77h-1.85c-.42,0-.76.35-.77.77v3.06c0,.42.35.76.77.76m5.91-6.6h-6.12c-1.39,0-2.52,1.13-2.53,2.52v13.26c0,1.39,1.14,2.52,2.53,2.52h6.12c1.4.01,2.54-1.11,2.55-2.51,0,0,0,0,0-.01V7.37c0-1.39-1.14-2.52-2.53-2.52h-.02Zm-5.68,3h1.38v2.59h-1.38v-2.58h0Z"/></g><rect class="cls-2" x="11.13" y="12.78" width="6.52" height="8.05" rx=".46" ry=".46"/></g></svg>