<?xml version="1.0" encoding="UTF-8"?><svg id="Layer_1" xmlns="http://www.w3.org/2000/svg" viewBox="0 0 28 28"><defs><style>.cls-1{fill:#999;}</style></defs><g id="Layer_2"><path class="cls-1" d="m13.99,28C6.26,27.99,0,21.72,0,13.99,0,6.26,6.28,0,14.01,0c7.73,0,14,6.28,13.99,14.01,0,5.63-3.38,10.7-8.56,12.89-1.72.73-3.58,1.1-5.45,1.1Zm0-26.91C6.86,1.09,1.08,6.87,1.08,14s5.78,12.91,12.91,12.91,12.91-5.78,12.91-12.91c0-7.13-5.78-12.9-12.91-12.91Z"/><path class="cls-1" d="m10.25,14.62c-1.82-.08-3.23-1.6-3.17-3.42-.06-1.82,1.35-3.34,3.17-3.42,1.82.08,3.23,1.6,3.17,3.42.06,1.82-1.35,3.34-3.17,3.42Zm0-6.11c-1.42.07-2.51,1.27-2.45,2.69-.06,1.42,1.03,2.62,2.45,2.69,1.42-.07,2.51-1.27,2.44-2.69.07-1.42-1.02-2.62-2.44-2.69Z"/><path class="cls-1" d="m10.69,23.89h-1.38c-.69,0-1.25-.55-1.26-1.24,0,0,0-.01,0-.02v-7c-.87-.28-1.63-.81-2.21-1.52-1.6-2.03-1.26-4.97.77-6.57,2.03-1.6,4.97-1.26,6.57.77,1.6,2.03,1.26,4.97-.77,6.57-.14.11-.28.21-.42.3v7.45c0,.69-.55,1.25-1.24,1.26-.02,0-.04,0-.06,0Zm-1.2-16.36c-2.03-.01-3.68,1.62-3.69,3.65-.01,1.72,1.18,3.22,2.86,3.6l.39.09v7.76c0,.14.12.26.26.26h1.38c.14,0,.26-.12.26-.26h0v-8l.26-.15c1.81-.91,2.54-3.11,1.64-4.93-.63-1.27-1.94-2.05-3.36-2.02Z"/><path class="cls-1" d="m6.75,14.81c-.23,0-.46-.02-.69-.06-.98-.16-1.87-.68-2.48-1.47-.6-.75-.85-1.72-.69-2.67.37-1.8,2.02-3.04,3.85-2.91v.73c-1.47-.12-2.79.86-3.11,2.3-.12.75.08,1.51.55,2.11.5.63,1.21,1.05,2,1.19.22.03.45.03.67,0v.73l-.1.05Z"/><path class="cls-1" d="m17.73,14.62c-1.82-.08-3.23-1.6-3.17-3.42-.06-1.82,1.35-3.34,3.17-3.42,1.82.08,3.23,1.6,3.17,3.42.06,1.82-1.35,3.34-3.17,3.42Zm0-6.11c-1.42.07-2.51,1.27-2.44,2.69-.07,1.42,1.02,2.62,2.44,2.69,1.42-.07,2.51-1.27,2.45-2.69.06-1.42-1.03-2.62-2.45-2.69Z"/><path class="cls-1" d="m18.67,23.89h-1.38c-.69.03-1.27-.51-1.3-1.2,0-.02,0-.04,0-.06v-7.45c-2.2-1.36-2.88-4.24-1.52-6.44,1.36-2.2,4.24-2.88,6.44-1.52,2.2,1.36,2.88,4.24,1.52,6.44-.1.16-.21.32-.33.47-.58.71-1.34,1.24-2.21,1.52v7c0,.67-.55,1.22-1.22,1.24Zm-.18-16.36c-2.03,0-3.67,1.65-3.67,3.67,0,1.36.75,2.6,1.95,3.24l.26.15v8c0,.14.12.26.26.26h1.38c.14,0,.26-.12.26-.26h0v-7.72l.39-.09c1.98-.45,3.22-2.41,2.77-4.39-.38-1.68-1.88-2.87-3.6-2.86Z"/><path class="cls-1" d="m21.23,14.81h-.12v-.73c.22.03.45.03.67,0,.79-.14,1.5-.56,2-1.19.47-.6.67-1.36.55-2.11-.32-1.44-1.64-2.42-3.11-2.3v-.73c1.83-.13,3.47,1.11,3.85,2.91.16.95-.09,1.92-.69,2.67-.61.79-1.5,1.31-2.48,1.47-.22.02-.45.03-.67.01Z"/></g></svg>