<?xml version="1.0" encoding="UTF-8"?><svg id="Layer_1" xmlns="http://www.w3.org/2000/svg" viewBox="0 0 28 28"><defs><style>.cls-1{fill:#999;}.cls-2{fill:none;stroke:#999;stroke-miterlimit:10;stroke-width:.5px;}</style></defs><g id="Layer_2"><path class="cls-1" d="m14,0C6.27,0,0,6.27,0,14s6.27,14,14,14,14-6.27,14-14S21.73,0,14,0Zm0,26.94c-7.15,0-12.94-5.79-12.94-12.94S6.85,1.06,14,1.06s12.94,5.79,12.94,12.94-5.79,12.94-12.94,12.94h0Z"/></g><path id="Path_8301" class="cls-2" d="m20.68,10.57H7.04c-.15,0-.27.12-.27.26h0v6.73c0,.15.12.26.27.26h13.64c.15,0,.27-.12.27-.26v-6.73c0-.15-.12-.26-.27-.26Z"/><path id="Path_8302" class="cls-2" d="m6.65,10.8c0-.09,0-.12-.02-.14-.09-.11-.16-.11-.59-.11v-.24c0-.05-.04-.09-.09-.09h-.3c-.05,0-.09.04-.09.09v.05h-.19c-.07-.07-.15-.13-.24-.17-.08-.02-.15-.03-.23-.02-.07,0-.12.01-.19.02h-.05s-.06.02-.06.02c-.12.02-.24.07-.35.12-.09.04-.17.11-.21.21-.01.04-.02.07-.02.11,0,.07,0,.13.03.2h0v.09c-.1.08-.18.18-.24.29-.28.33-.38,1.52-.52,2.78-.15,1.38-.43,2.74.3,3.36.47.41.75.43,1.41.45.12.01.04-.04.31-.03.09,0,.19,0,.28.02.5,0,.77,0,.93,0,.08-.01.14-.08.15-.16,0,0-.01-5.8,0-6.83Zm-1.49.64c.4,0,.73.33.73.73s-.33.73-.73.73-.73-.33-.73-.73c0-.4.32-.73.73-.73h0Z"/><path id="Path_8303" class="cls-2" d="m24.44,14c-.14-1.26-.24-2.44-.52-2.78-.06-.11-.15-.21-.24-.29v-.07h0c.03-.07.04-.14.03-.21,0-.04-.01-.07-.02-.11-.04-.09-.12-.17-.21-.21-.11-.06-.23-.1-.35-.12h-.06s-.05-.02-.05-.02c-.07-.01-.12-.02-.19-.02-.08,0-.16,0-.23.02-.09.04-.17.09-.24.17h-.19v-.05c0-.05-.04-.09-.09-.09h-.3c-.05,0-.09.04-.09.09v.24c-.44,0-.5,0-.59.11-.01.02-.02.04-.02.14,0,1.03,0,6.83,0,6.83.01.08.07.15.15.16.17,0,.44,0,.93,0,.09-.01.19-.02.28-.02.27,0,.19.05.31.03.66-.02.94-.04,1.41-.45.72-.62.45-1.99.29-3.36Zm-1.91,1.23c-.4,0-.72-.32-.72-.72,0-.4.32-.72.72-.72.4,0,.72.32.72.72,0,.4-.32.72-.72.72h0Z"/><path class="cls-1" d="m22.52,11.12c.22,0,.4.18.4.4,0,.22-.18.4-.4.4-.22,0-.4-.18-.4-.4,0-.22.18-.4.4-.4h0Z"/><path class="cls-1" d="m22.92,12.9c0,.22-.18.4-.4.4-.22,0-.4-.18-.4-.4,0-.22.18-.4.4-.4.22,0,.4.18.4.4h0Z"/><path class="cls-1" d="m21.43,12.21c0-.22.18-.4.4-.4.22,0,.4.18.4.4,0,.22-.18.4-.4.4-.22,0-.4-.18-.4-.4h0Z"/><path class="cls-1" d="m23.21,12.6c-.22,0-.4-.18-.4-.4,0-.22.18-.4.4-.4.22,0,.4.18.4.4,0,.22-.18.4-.4.4h0Z"/><path class="cls-1" d="m5.91,14.81h-.35v.35c0,.17-.14.31-.31.31s-.31-.14-.31-.31v-.35h-.35c-.17,0-.31-.14-.31-.31s.14-.31.31-.31h.35v-.35c0-.17.14-.31.31-.31s.31.14.31.31v.35h.35c.17,0,.31.14.31.31,0,.17-.14.31-.31.31h0Z"/></svg>