<?xml version="1.0" encoding="UTF-8"?><svg id="Layer_1" xmlns="http://www.w3.org/2000/svg" viewBox="0 0 28 28"><defs><style>.cls-1{fill:#999;}</style></defs><g id="Layer_2"><path class="cls-1" d="m14,0C6.27,0,0,6.27,0,14s6.27,14,14,14,14-6.27,14-14S21.73,0,14,0Zm0,26.94c-7.15,0-12.94-5.79-12.94-12.94S6.85,1.06,14,1.06s12.94,5.79,12.94,12.94-5.79,12.94-12.94,12.94h0Z"/><path class="cls-1" d="m19.38,11.56h.17c.37-.05.64-.39.6-.76-.04-.32-.28-.56-.6-.6-.37-.09-.74.14-.83.51-.09.37.14.74.51.83.05.01.11.02.16.02Z"/><path class="cls-1" d="m19.54,13c-.37,0-.67.3-.68.67h0c0,.38.3.68.68.69.38,0,.68-.3.68-.68h0c0-.38-.3-.68-.68-.68h0Z"/><path class="cls-1" d="m21,11.61h0c-.38,0-.69.31-.69.69s.31.7.69.7h0c.38,0,.68-.3.68-.68,0-.38-.3-.68-.68-.68v-.03Z"/><path class="cls-1" d="m18.13,13c.37.01.68-.28.69-.65,0,0,0,0,0-.01h0c0-.38-.3-.69-.68-.7,0,0,0,0,0,0-.38,0-.68.29-.69.67,0,0,0,0,0,.01-.01.37.28.68.65.69,0,0,.01,0,.02,0h.01Z"/><path class="cls-1" d="m19.6,15.32c-.99,0-1.8.8-1.81,1.79,0,1,.81,1.82,1.81,1.83,1,0,1.81-.81,1.81-1.81s-.81-1.81-1.81-1.81Zm0,2.81c-.55,0-1-.45-1-1s.45-1,1-1,1,.45,1,1-.45,1-1,1Z"/><path class="cls-1" d="m8,13.37h0c1,0,1.81-.81,1.81-1.81s-.81-1.81-1.81-1.81c-.99,0-1.8.8-1.81,1.79-.01,1,.79,1.82,1.79,1.83.03,0,.05,0,.08,0h-.06Zm0-2.74c.55,0,1,.45,1,1s-.45,1-1,1-1-.45-1-1c0-.55.45-1,1-1,.02,0,.04,0,.06,0h-.06Z"/><path class="cls-1" d="m24.38,17l-.57-6.45c0-.15,0-.29-.07-.44s-.07-.3-.12-.45-.07-.16-.11-.25c0-.02,0-.03,0-.05l-.26-1.54c-.02-.55-.37-1.03-.88-1.21-.77-.28-1.56-.49-2.37-.61-.96-.05-1.93.01-2.88.19-.21.04-.37.22-.38.44v.81h-.15l-.85-.07-.87-.07h-1.64l-.87.07-.84.07h-.12v-.81c-.01-.22-.17-.4-.39-.44-.99-.19-2-.25-3.01-.19-.81.12-1.61.33-2.38.61-.51.18-.85.65-.87,1.19l-.25,1.51c0,.12-.1.23-.14.35-.05.14-.09.29-.12.44-.03.15-.06.3-.07.45v.41l-.51,5.58v1.4c0,.16,0,.32.07.47.03.16.06.32.11.48.05.16.1.31.16.46s.1.23.16.34c.06.11.13.22.2.32.07.11.15.21.23.31l.26.27c.12.11.25.22.38.32l.42.27.44.21c.18.07.37.14.55.19.19.05.38.09.57.12.19.03.38.06.57.07h3.3l.73.05.75.07c.25,0,.51.05.76.06l.68.05h.76c.26,0,.51,0,.77-.06l.75-.07.72-.05h3.31c.19-.01.38-.04.57-.07.38-.06.75-.16,1.11-.31.15-.06.3-.13.45-.21l.42-.27c.13-.1.26-.21.38-.32l.26-.27c.08-.1.16-.2.23-.31.07-.1.13-.21.19-.32.07-.11.12-.22.17-.34.06-.15.11-.3.16-.46.05-.16.08-.32.11-.48.03-.16.05-.31.06-.47,0-.16,0-.31,0-.47-.02-.2-.03-.36-.04-.52Zm-4.47-10c.74.11,1.46.29,2.16.56.08,0,.19.06.24.44v.1c-1.28-.6-2.72-.8-4.12-.58h-.56v-.41c.75-.12,1.52-.16,2.28-.11Zm-6.06,12.33c-.5,0-.91-.42-.91-.92v-7.58c-.05-.51.31-.96.82-1.01.51-.05.96.31,1.01.82,0,.06,0,.13,0,.19v7.58c0,.51-.41.92-.92.92h0ZM6,7.53c.69-.25,1.4-.43,2.12-.53.75-.05,1.51,0,2.25.11v.41h-.56c-1.38-.24-2.81-.07-4.1.48v-.09c.06-.32.18-.36.29-.38Zm6.61,13.47l-.75-.07c-.25,0-.51-.05-.77-.06h-3.29l-.47-.05c-.16-.03-.31-.06-.46-.11-.15-.04-.3-.09-.44-.15l-.35-.16-.32-.2-.28-.24-.19-.2-.17-.22c0-.08-.1-.16-.14-.24-.05-.1-.09-.2-.13-.3,0-.12-.09-.24-.13-.36s-.06-.25-.08-.38,0-.26-.06-.39,0-.26,0-.39v-.83l.51-5.59v-.38l.06-.36.14-.32c.04-.11.08-.21.13-.31.04-.08.08-.15.13-.22l.21-.26s.79-1,4-.74h1.76l.87-.07c.28,0,.55-.06.83-.07h.08v.67c-.79.25-1.32,1-1.3,1.83v7.58c0,.88.62,1.65,1.48,1.83v.76h-.87Zm10.8-3.11c0,.13,0,.26-.05.38-.02.13-.05.26-.09.38-.03.12-.07.24-.12.36-.04.09-.08.17-.13.25-.04.08-.09.16-.14.24-.05.08-.11.15-.17.22l-.19.21c-.09.08-.19.16-.29.23-.1.08-.2.15-.31.21l-.35.16c-.14.06-.29.11-.44.15-.15.04-.3.08-.46.1l-.48.06h-4.05l-.75.07c-.24,0-.49.05-.73.06h-.52v-.79c.91-.14,1.59-.93,1.59-1.85v-7.5c0-.87-.6-1.63-1.45-1.83v-.77h.48l.84.07.86.07h1.79c3.2-.27,4,.73,4,.78l.18.22c.05.07.09.14.13.22.05.1.09.2.13.31.04.11.07.22.09.33l.06.36.57,6.39v.91Z"/><path class="cls-1" d="m10.67,15.89h-.92s-.08.03-.11.06l-.08.08-.27.26s0,.05,0,.07c-.01.03-.01.05,0,.08v.21s-.01.05,0,.08c0,.02,0,.05,0,.07l.09.08.26.27s.08.01.12,0h.92s0-.07,0-.11c.1-.35.1-.72,0-1.07,0-.03,0-.06-.01-.08Z"/><path class="cls-1" d="m6.71,16c-.1.35-.1.72,0,1.07,0,.04,0,.07,0,.11h.92s.07.01.11,0l.26-.27.09-.08s0-.05,0-.07v-.44l-.22-.32h-.09s-.07-.05-.11-.06h-.92s-.03.04-.04.06Z"/><path class="cls-1" d="m9.37,18.48v-.92s-.03-.08-.06-.11l-.08-.08-.23-.27h-.51l-.08.09-.27.26s-.01.08,0,.12v.92h.11c.35.09.72.09,1.07,0h.05Z"/><path class="cls-1" d="m9.29,14.52c-.35-.1-.72-.1-1.07,0h-.11v.92s-.01.07,0,.11l.27.26.08.09s.05,0,.07,0h.44l.26-.26.08-.09s.05-.07.06-.11v-.91s-.05-.01-.08-.01Z"/></g></svg>